# xmcd
# Track frame offsets:
# 150
# 13394
# 28741
# 42612
# 55954
# 69014
# 81099
# 95627
# 107000
# 121432
#
# Disc length: 1911 seconds
# Revision: 0
# Processed by: cddbd v1.4PL0 Copyright (c) Steve Scherf et al.
# Submitted via: VisiTrax 2.9.5.181 - For more info visit www.synapsa.com
#
DISCID=8607750a
DTITLE=Tanya Tucker - Greatest Hits - Encore
DYEAR=1900
DGENRE=
TTITLE0=San Antonio Stroll
TTITLE1=Delta Dawn
TTITLE2=Don't Believe My Heart Can Stand Another You
TTITLE3=The Jamestown Ferry
TTITLE4=Here's Some Love
TTITLE5=Would You Lay With Me (In A Field Of Stone)
TTITLE6=Blood Red And Going Down
TTITLE7=Pecos Promenade
TTITLE8=What's Your Mama's Name
TTITLE9=Texas (When I Die)
EXTD=
EXTT0=
EXTT1=
EXTT2=
EXTT3=
EXTT4=
EXTT5=
EXTT6=
EXTT7=
EXTT8=
EXTT9=
PLAYORDER=
